<svg xmlns="http://www.w3.org/2000/svg" width="2730.667" height="2730.667" preserveAspectRatio="xMidYMid meet" version="1.0" viewBox="0 0 2048 2048"><metadata>Created by potrace 1.14, written by Peter Selinger 2001-2017</metadata><g fill="#000" stroke="none"><path d="M9890 20294 c-173 -102 -322 -188 -330 -191 -8 -4 -42 -23 -75 -43 -46 -28 -1075 -623 -1275 -738 -141 -80 -166 -95 -175 -102 -5 -4 -30 -18 -55 -32 -43 -24 -332 -190 -879 -507 -134 -77 -248 -141 -253 -141 -4 0 -8 -4 -8 -10 0 -5 -5 -10 -11 -10 -6 0 -63 -31 -127 -69 -222 -131 -344 -201 -348 -201 -2 0 -21 -11 -42 -23 -20 -13 -57 -35 -82 -49 -25 -14 -85 -49 -135 -78 -49 -29 -106 -62 -125 -72 -54 -31 -203 -117 -220 -128 -8 -5 -64 -37 -125 -72 -60 -35 -130 -75 -155 -90 -25 -15 -56 -33 -70 -41 -36 -19 -868 -499 -975 -562 -49 -29 -148 -86 -220 -127 -71 -42 -274 -158 -450 -260 -176 -102 -333 -193 -350 -202 -16 -9 -45 -26 -63 -37 -58 -34 -555 -322 -597 -345 -22 -12 -177 -102 -345 -199 -334 -194 -611 -354 -678 -392 -23 -13 -93 -54 -155 -90 -62 -36 -132 -76 -157 -88 l-45 -23 1 -5128 c1 -2821 2 -5132 3 -5135 0 -4 9 -9 19 -12 9 -3 42 -20 72 -38 58 -33 181 -105 215 -126 11 -7 27 -15 35 -19 7 -4 77 -44 155 -89 77 -45 160 -93 185 -107 25 -14 117 -67 205 -118 88 -51 180 -104 205 -118 25 -14 61 -35 80 -47 19 -12 55 -33 80 -47 49 -27 285 -163 310 -178 8 -5 123 -71 255 -148 132 -76 285 -165 340 -197 55 -32 114 -66 130 -75 17 -9 160 -92 318 -184 159 -92 303 -175 320 -184 18 -10 51 -30 74 -45 24 -15 45 -27 47 -27 3 0 82 -45 176 -100 94 -55 175 -100 181 -100 5 0 9 -4 9 -10 0 -5 4 -10 9 -10 4 0 58 -29 119 -64 61 -36 131 -76 154 -89 24 -13 99 -57 168 -97 69 -40 145 -84 170 -98 25 -13 50 -28 55 -32 6 -4 30 -19 55 -32 25 -14 86 -49 135 -78 50 -29 106 -62 125 -72 19 -11 80 -46 135 -78 55 -32 116 -67 135 -78 77 -43 360 -208 440 -255 47 -27 101 -59 120 -69 19 -11 122 -70 228 -131 106 -62 200 -116 210 -122 17 -9 460 -267 492 -285 60 -36 464 -268 500 -288 25 -14 81 -46 125 -72 108 -63 530 -308 580 -336 22 -12 108 -61 190 -109 83 -48 168 -97 190 -110 22 -12 81 -46 130 -75 50 -29 110 -64 135 -78 25 -13 50 -28 55 -32 6 -4 30 -19 55 -32 25 -14 146 -84 270 -155 124 -72 277 -160 340 -197 74 -43 125 -66 146 -66 22 0 142 65 430 231 219 127 487 282 594 344 107 61 292 168 410 237 118 69 235 136 260 150 25 14 79 46 121 72 42 25 79 46 81 46 3 0 58 31 122 70 65 38 119 70 122 70 3 0 30 16 60 35 30 19 56 35 58 35 3 0 55 30 118 66 62 36 142 83 178 104 36 21 108 62 160 93 195 113 456 264 500 289 25 14 86 49 135 78 50 29 108 62 130 75 22 12 252 145 510 295 259 150 484 280 500 290 37 21 254 146 423 244 70 40 152 87 182 105 30 17 62 36 70 41 8 5 56 33 105 61 174 100 267 154 313 182 26 15 56 32 67 37 11 6 36 20 55 31 51 31 279 163 320 186 20 11 92 53 160 93 69 40 139 80 155 90 17 9 112 65 213 123 101 59 188 107 193 107 5 0 9 3 9 8 0 4 17 15 38 25 20 10 57 30 82 45 25 16 70 42 100 59 30 17 107 61 170 98 63 37 131 77 150 88 34 19 506 291 1090 629 151 88 295 172 320 186 25 15 61 36 82 46 91 48 98 71 31 104 -21 10 -174 98 -341 195 -166 97 -322 187 -345 200 -24 14 -152 88 -286 166 -133 77 -245 141 -249 141 -3 0 -13 6 -21 14 -9 8 -38 26 -66 41 -27 14 -66 36 -85 47 -96 56 -480 278 -511 296 -20 11 -47 26 -60 34 -13 7 -31 18 -39 24 -8 7 -40 25 -70 41 -30 17 -84 47 -120 68 -36 20 -80 46 -98 56 -18 11 -103 60 -187 109 -84 49 -169 98 -187 108 -18 11 -57 33 -86 51 -29 17 -55 31 -58 31 -3 0 -18 8 -32 19 -15 10 -45 29 -67 41 -43 24 -677 390 -1035 598 -118 68 -230 133 -248 143 -18 11 -288 167 -600 347 -312 181 -589 341 -617 356 -27 16 -54 32 -60 36 -5 4 -30 19 -55 32 -25 14 -101 58 -170 98 -351 203 -448 260 -480 278 -19 11 -164 94 -323 186 -158 92 -302 175 -321 185 -18 11 -66 39 -107 64 -41 24 -99 58 -129 75 -30 16 -293 168 -585 337 -291 169 -543 315 -560 325 -16 9 -118 68 -225 130 -107 62 -211 122 -230 132 -19 11 -54 31 -78 45 l-42 25 81 49 c44 27 82 49 84 49 2 0 28 14 57 31 29 18 141 82 248 144 107 62 246 142 309 179 62 36 115 66 117 66 1 0 39 23 84 50 45 28 83 50 86 50 3 0 91 51 154 90 8 5 38 21 65 36 28 14 55 31 62 36 7 5 27 18 45 27 33 18 77 43 383 221 88 51 178 103 200 115 22 13 96 56 165 95 69 40 141 81 160 92 161 92 447 258 498 289 35 22 65 39 67 39 3 0 33 17 67 38 35 21 70 42 78 46 8 4 24 12 35 19 11 7 47 28 80 47 33 19 68 40 77 45 9 6 34 20 55 31 21 12 137 79 258 149 121 70 240 139 265 153 25 14 83 47 130 75 96 56 137 80 405 235 105 60 206 119 225 129 19 11 59 34 88 52 29 17 55 31 57 31 3 0 28 15 58 33 83 50 90 55 127 75 19 11 217 125 440 254 223 129 425 246 450 260 25 14 142 81 260 150 118 69 235 136 260 150 50 29 127 74 150 88 13 9 71 42 230 133 57 32 428 247 520 301 47 27 101 58 120 68 19 10 49 27 65 37 35 22 60 36 425 246 151 87 287 166 302 176 14 11 29 19 32 19 3 0 43 22 88 49 46 27 201 117 346 201 185 107 262 157 260 168 -3 14 -46 44 -103 72 -11 6 -36 20 -55 31 -19 12 -141 82 -270 157 -213 122 -392 227 -445 259 -11 7 -27 15 -35 20 -8 4 -35 19 -61 33 -25 15 -67 40 -95 55 -109 63 -150 86 -164 95 -16 10 -99 58 -160 93 -125 70 -369 213 -392 228 -15 11 -30 19 -34 19 -4 0 -41 21 -83 46 -42 25 -84 50 -93 55 -10 5 -143 82 -295 171 -153 88 -287 166 -298 172 -11 6 -82 47 -158 91 -76 44 -155 89 -177 101 -21 11 -44 25 -52 31 -7 5 -33 21 -58 34 -25 13 -52 29 -60 35 -8 6 -40 25 -70 41 -87 48 -673 386 -848 490 -40 24 -75 43 -77 43 -3 0 -34 18 -70 40 -36 22 -68 40 -71 40 -3 0 -25 14 -49 30 -24 17 -46 30 -48 30 -3 0 -115 64 -249 141 -133 78 -259 151 -278 161 -37 21 -701 405 -805 466 -33 19 -73 42 -90 52 -24 13 -564 325 -725 418 -19 11 -89 51 -156 90 -66 38 -139 81 -162 96 -23 14 -44 26 -46 26 -2 0 -77 43 -167 95 -89 52 -164 95 -166 95 -2 0 -20 11 -41 23 -42 27 -284 167 -352 205 -25 14 -49 28 -55 32 -5 4 -30 19 -55 32 -25 14 -117 67 -205 118 -88 51 -176 102 -195 113 -19 11 -145 83 -280 162 -467 271 -494 285 -525 284 -20 -1 -140 -65 -345 -185z" transform="translate(0.000000,2048.000000) scale(0.100000,-0.100000)"/></g></svg>